<mxfile host="app.diagrams.net" modified="2023-06-14T19:43:37.565Z" agent="Mozilla/5.0 (Windows NT 10.0; Win64; x64) AppleWebKit/537.36 (KHTML, like Gecko) Chrome/112.0.0.0 Safari/537.36 OPR/98.0.0.0 (Edition std-1)" version="21.4.0" etag="JlhfykcH6CL8kiid20jz" type="github">
  <diagram name="PÃ¡gina-1" id="FQ4oKoWQ3YcfksCxjeTG">
    <mxGraphModel>
      <root>
        <mxCell id="0" />
        <mxCell id="1" parent="0" />
      </root>
    </mxGraphModel>
  </diagram>
</mxfile>
